<svg width="99" height="99" viewBox="0 0 99 99" fill="none" xmlns="http://www.w3.org/2000/svg">
<path d="M8.25 37.125V28.875C8.25 16.5 16.5 8.25 28.875 8.25H70.125C82.5 8.25 90.75 16.5 90.75 28.875V37.125M8.25 61.875V70.125C8.25 82.5 16.5 90.75 28.875 90.75H70.125C82.5 90.75 90.75 82.5 90.75 70.125V61.875" stroke="#3D3D3D" stroke-width="1.5" stroke-miterlimit="10" stroke-linecap="round" stroke-linejoin="round"/>
<path d="M27.6375 38.1975L49.5 50.8613L71.1975 38.28M49.5 73.3013V50.82" stroke="#3D3D3D" stroke-width="1.5" stroke-linecap="round" stroke-linejoin="round"/>
<path d="M44.385 25.9463L31.185 33.2888C28.215 34.9388 25.74 39.1051 25.74 42.5288V56.5126C25.74 59.9363 28.1737 64.1026 31.185 65.7526L44.385 73.0951C47.19 74.6626 51.81 74.6626 54.6562 73.0951L67.8562 65.7526C70.8262 64.1026 73.3012 59.9363 73.3012 56.5126V42.5288C73.3012 39.1051 70.8675 34.9388 67.8562 33.2888L54.6562 25.9463C51.81 24.3376 47.19 24.3376 44.385 25.9463Z" stroke="#3D3D3D" stroke-width="1.5" stroke-linecap="round" stroke-linejoin="round"/>
</svg>
